<svg data-testid="icon" color="currentColor" xmlns="http://www.w3.org/2000/svg" viewBox="0 0 32 32" class="style__Icon-sc-__sc-hqksj3-1 jqennC"><path d="M16 2.883c4.272 0 4.778.016 6.465.093 1.56.071 2.407.332 2.971.551.747.29 1.28.637 1.84 1.197s.907 1.093 1.197 1.84c.219.564.48 1.411.551 2.971.077 1.687.093 2.193.093 6.465s-.016 4.778-.093 6.465c-.071 1.56-.332 2.407-.551 2.971-.29.747-.637 1.28-1.197 1.84s-1.093.907-1.84 1.197c-.564.219-1.411.48-2.971.551-1.687.077-2.193.093-6.465.093s-4.778-.016-6.465-.093c-1.56-.071-2.407-.332-2.971-.551-.747-.29-1.28-.637-1.84-1.197s-.907-1.093-1.197-1.84c-.219-.564-.48-1.411-.551-2.971-.077-1.687-.093-2.193-.093-6.465s.016-4.778.093-6.465c.071-1.56.332-2.407.551-2.971.29-.747.637-1.28 1.197-1.84s1.093-.907 1.84-1.197c.564-.219 1.411-.48 2.971-.551 1.687-.077 2.193-.093 6.465-.093zM16 0c-4.345 0-4.89.018-6.597.096C7.7.174 6.537.444 5.519.84c-1.052.409-1.944.956-2.834 1.845S1.248 4.467.84 5.519C.444 6.537.174 7.7.096 9.403.018 11.11 0 11.654 0 16s.018 4.89.096 6.597c.078 1.703.348 2.866.744 3.884.409 1.052.956 1.944 1.845 2.834s1.782 1.437 2.834 1.845c1.018.396 2.181.666 3.884.744C11.11 31.982 11.654 32 16 32s4.89-.018 6.597-.096c1.703-.078 2.866-.348 3.884-.744 1.052-.409 1.944-.956 2.834-1.845s1.436-1.782 1.845-2.834c.396-1.018.666-2.181.744-3.884C31.982 20.89 32 20.346 32 16s-.018-4.89-.096-6.597c-.078-1.703-.348-2.866-.744-3.884-.409-1.052-.956-1.944-1.845-2.834S27.533 1.248 26.481.84C25.463.444 24.3.174 22.597.096 20.891.018 20.346 0 16 0zm0 7.784a8.216 8.216 0 1 0 0 16.432 8.216 8.216 0 0 0 0-16.432zm0 13.549a5.333 5.333 0 1 1 0-10.666 5.333 5.333 0 0 1 0 10.666zM26.461 7.459a1.92 1.92 0 1 1-3.841-.001 1.92 1.92 0 0 1 3.841.001z" class="style__Path-sc-__sc-hqksj3-2 kqvXtw"/></svg>