<svg data-testid="icon" color="currentColor" xmlns="http://www.w3.org/2000/svg" viewBox="0 0 32 32" class="style__Icon-sc-__sc-hqksj3-1 jqennC"><path d="M32.062 5.334a12.976 12.976 0 0 1-3.848 1.111 7.047 7.047 0 0 0 2.947-3.906 13.45 13.45 0 0 1-4.254 1.699A6.508 6.508 0 0 0 22.016 2c-3.698 0-6.697 3.164-6.697 7.058 0 .56.061 1.097.173 1.615-5.565-.28-10.5-3.099-13.804-7.359-.581 1.034-.905 2.24-.905 3.551 0 2.452 1.183 4.611 2.977 5.88a6.422 6.422 0 0 1-3.033-.882v.084c0 3.423 2.305 6.281 5.371 6.93a6.479 6.479 0 0 1-3.01.121c.859 2.805 3.327 4.846 6.265 4.905a12.984 12.984 0 0 1-9.896 2.926A18.333 18.333 0 0 0 9.74 30c12.325 0 19.059-10.759 19.059-20.076 0-.303 0-.604-.023-.905a13.963 13.963 0 0 0 3.348-3.656l-.063-.028z" class="style__Path-sc-__sc-hqksj3-2 kqvXtw"/></svg>